name processed_emg_signals
nRows=40
nColumns=7
 
endheader
time	RGLTMED	RRF	RADDLONG	RST	RTA	RGM
0.98	0.5467200084068597	0.960255692970888	0.6247298352691915	0.1041912139234147	0.1064016124429411	0.5291323799864855
0.981	0.5467989761555146	0.958435800238814	0.6245794092412076	0.1005925309986568	0.1062353289689017	0.5282610234931915
0.982	0.5467959870304091	0.9563701560382324	0.6242640322882675	0.097062969403023	0.1060704722291273	0.5273628232300042
0.983	0.5467110088015967	0.9540623561558154	0.6237841320637681	0.0936031950802014	0.1059074728459148	0.5264389524472314
0.984	0.5465440376675372	0.9515162160520372	0.6231402988581364	0.0902138086801554	0.1057467690938207	0.5254906402102634
0.985	0.5462950975287786	0.9487357631528908	0.6223332841066622	0.0868953479582271	0.1055888062905602	0.5245191702326232
0.986	0.545964239358239	0.9457252289408036	0.6213639986970845	0.0836482902468763	0.1054340361741677	0.5235258795340447
0.987	0.5455515406741632	0.9424890408699392	0.6202335110900893	0.0804730549933784	0.1052829162662787	0.5225121569233313
0.988	0.5450571051209265	0.939031814130376	0.6189430452665737	0.0773700063569407	0.1051359092212785	0.5214794413062502
0.989	0.544481062161846	0.9353583432846708	0.6174939785159779	0.0743394558584605	0.1049934821608548	0.5204292198191489
0.99	0.5438235668870108	0.931473593800204	0.6158878390798153	0.0713816650763399	0.1048561059932988	0.5193630257887983
0.991	0.543084799938061	0.9273826935003994	0.614126303664232	0.068496848381647	0.1047242547168156	0.5182824365193253
0.992	0.5422649675505516	0.923090923957284	0.6122111948347763	0.0656851757059692	0.104598404705815	0.5171890709074927
0.993	0.5413643017132532	0.9186037118466932	0.6101444783058909	0.062946775335421	0.1044790339790328	0.5160845868883684
0.994	0.5403830604421047	0.9139266202848342	0.6079282601371154	0.0602817367242311	0.1043666214481907	0.5149706787148057
0.995	0.5393215281653657	0.9090653401624972	0.6055647838478642	0.0576901133216527	0.1042616461458053	0.5138490740758265
0.996	0.5381800162148849	0.9040256814906724	0.6030564274624733	0.0551719254059366	0.1041645864308417	0.5127215310608211
0.997	0.5369588634171423	0.898813564769767	0.6004057004971496	0.0527271629195262	0.1040759191711506	0.5115898349783072
0.998	0.5356584367765678	0.8934350123944708	0.5976152408997548	0.0503557882997503	0.1039961189020552	0.5104557950396502
0.999	0.5342791322424257	0.8878961401062919	0.5946878119530697	0.0480577392994787	0.1039256569610377	0.5093212409192995
1.0	0.5328213755498401	0.8822031485060792	0.5916262991503363	0.0458329317923045	0.1038650005988758	0.5081880192037114
1.0010000000000001	0.5312856231246011	0.8763623146382843	0.5884337070511345	0.0436812625569702	0.1038146120680586	0.507057989741503
1.002	0.5296723630411678	0.8703799836565855	0.5851131561231541	0.0416026120357796	0.1037749476894196	0.5059330219070477
1.0030000000000001	0.5279821160227225	0.8642625605787082	0.5816678795740928	0.0395968470618976	0.1037464568982602	0.5048149907887228
1.004	0.5262154364716516	0.8580165021357099	0.5781012201754394	0.0376638235503713	0.1037295812712462	0.5037057733118836
1.0050000000000001	0.5243729135183925	0.8516483087193334	0.5744166270787856	0.0358033891477326	0.1037247535355775	0.5026072443053009
1.006	0.5224551720765878	0.8451645164297921	0.5706176526233252	0.0340153858351335	0.1037323965621536	0.5015212725189178
1.0070000000000001	0.5204628738938224	0.8385716892247475	0.5667079491318038	0.0322996524800294	0.1037529223447961	0.5004497165997428
1.008	0.5183967185895997	0.8318764111691284	0.5626912656911465	0.0306560273317346	0.1037867309680487	0.4993944210325132
1.0090000000000001	0.516257444674762	0.8250852787835261	0.558571444913144	0.0290843504563567	0.1038342095663773	0.4983572120516151
1.01	0.5140458305490068	0.81820489348713	0.5543524196706968	0.027584466107105	0.1038957312778929	0.4973398935314135
1.0110000000000001	0.5117626954748236	0.8112418541295364	0.5500382098054715	0.0261562250261961	0.1039716541957922	0.4963442428630771
1.012	0.5094089005262991	0.8042027496040788	0.5456329188034216	0.0247994866749654	0.1040623203207425	0.4953720068270717
1.0130000000000001	0.5069853495108864	0.7970941515340472	0.5411407304351553	0.0235141213888939	0.1041680545173057	0.494424897471137
1.014	0.5044929898614093	0.7899226070234528	0.5365659053586513	0.0223000124545694	0.1042891634774466	0.4935045880033223
1.0150000000000001	0.5019328134945628	0.7826946314651476	0.5319127776810406	0.0211570581053261	0.1044259346941161	0.4926127087090268
1.016	0.4993058576316262	0.7754167014021415	0.5271857514763809	0.0200851734326477	0.1045786354478892	0.4917508428999712
1.0170000000000001	0.4966132055762207	0.7680952474409315	0.5223892972563797	0.0190842922102264	0.1047475118094354	0.4909205229022369
1.018	0.4938559874435282	0.7607366472195676	0.5175279483907281	0.0181543686279287	0.1049327876605316	0.4901232260904968
1.0190000000000001	0.4910353808337393	0.753347218435483	0.5126062974745598	0.0172953789329392	0.1051346637359634	0.4893603709758894
